<?xml version="1.0" encoding="utf-8"?><!DOCTYPE svg PUBLIC "-//W3C//DTD SVG 1.1//EN" "http://www.w3.org/Graphics/SVG/1.1/DTD/svg11.dtd"><svg xmlns="http://www.w3.org/2000/svg" xmlns:xlink="http://www.w3.org/1999/xlink" xml:space="preserve" overflow="visible" width="88" height="31" viewBox="0 0 88 31"><defs><path id="a" fill="none" d="M0 0h88v31H0V0z"/><path id="b" d="M0 30h83v1H0v-1z"/><path id="d" fill="#4E4B3F" d="M0 0h83v31H0V0z"/><path id="e" d="M82 0h1v31h-1V0z"/><path id="i" d="M2.16 29.005h80v1h-80v-1z"/><path id="k" fill="#B39F67" d="M0 0h83v31H0V0z"/><path id="n" fill="#383530" d="M0 0h83v31H0V0z"/><path id="o" fill="#383838" d="M.366 0h36.443v31H.366V0z"/><path id="B" fill="#272623" d="M0 0h83v31H0V0z"/></defs><g image-rendering="optimizeQuality" shape-rendering="geometricPrecision" text-rendering="geometricPrecision"><use xlink:href="#a"/><path fill="#FC6" d="M0 0h83v31H0V0z"/><path fill="#FFF" d="M.365 0h36.444v31H.365V0z"/><path fill="none" d="M4.692 2.291h40.005v24.607H4.692V2.291z"/><use xlink:href="#b" fill="#504D4C"/><clipPath id="c"><use xlink:href="#b"/></clipPath><g clip-path="url(#c)"><use xlink:href="#a"/><use xlink:href="#d"/><path fill="#4F4F4F" d="M.365 0h36.444v31H.365V0z"/></g><use xlink:href="#e" fill="#504D4C"/><clipPath id="f"><use xlink:href="#e"/></clipPath><g clip-path="url(#f)"><use xlink:href="#a"/><use xlink:href="#d"/><defs><use xlink:href="#b" id="g"/></defs><use xlink:href="#g" fill="#191919"/><clipPath id="h"><use xlink:href="#g"/></clipPath><g clip-path="url(#h)"><use xlink:href="#a"/><path fill="#191917" d="M0 0h83v31H0V0z"/><path fill="#191919" d="M.366 0h36.443v31H.366V0z"/></g></g><path fill="#CCC" d="M0 0h1v31H0V0z"/><use xlink:href="#i" fill="#9E9C9C"/><clipPath id="j"><use xlink:href="#i"/></clipPath><g clip-path="url(#j)"><use xlink:href="#a"/><use xlink:href="#k"/><path fill="#B5B5B5" d="M.365 0h36.444v31H.365V0z"/><defs><use xlink:href="#b" id="l"/></defs><use xlink:href="#l" fill="#383838"/><clipPath id="m"><use xlink:href="#l"/></clipPath><g clip-path="url(#m)"><use xlink:href="#a"/><use xlink:href="#n"/><use xlink:href="#o"/></g><defs><use xlink:href="#e" id="p"/></defs><use xlink:href="#p" fill="#383838"/><clipPath id="q"><use xlink:href="#p"/></clipPath><g clip-path="url(#q)"><use xlink:href="#a"/><use xlink:href="#n"/><defs><use xlink:href="#b" id="r"/></defs><use xlink:href="#r" fill="#131313"/><clipPath id="s"><use xlink:href="#r"/></clipPath><g clip-path="url(#s)"><use xlink:href="#a"/><path fill="#131313" d="M0 0h83v31H0V0z"/><path fill="#131313" d="M.366 0h36.443v31H.366V0z"/></g></g></g><defs><path id="t" d="M80.806 1h1v30h-1V1z"/></defs><use xlink:href="#t" fill="#9E9C9C"/><clipPath id="u"><use xlink:href="#t"/></clipPath><g clip-path="url(#u)"><use xlink:href="#a"/><use xlink:href="#k"/><defs><use xlink:href="#b" id="v"/></defs><use xlink:href="#v" fill="#383838"/><clipPath id="w"><use xlink:href="#v"/></clipPath><g clip-path="url(#w)"><use xlink:href="#a"/><use xlink:href="#n"/><use xlink:href="#o"/></g><defs><use xlink:href="#i" id="x"/></defs><use xlink:href="#x" fill="#818181"/><clipPath id="y"><use xlink:href="#x"/></clipPath><g clip-path="url(#y)"><use xlink:href="#a"/><path fill="#807659" d="M0 0h83v31H0V0z"/><path fill="#818181" d="M.365 0h36.444v31H.365V0z"/><defs><use xlink:href="#b" id="z"/></defs><use xlink:href="#z" fill="#272727"/><clipPath id="A"><use xlink:href="#z"/></clipPath><g clip-path="url(#A)"><use xlink:href="#a"/><use xlink:href="#B"/><path fill="#272727" d="M.366 0h36.443v31H.366V0z"/></g><defs><use xlink:href="#e" id="C"/></defs><use xlink:href="#C" fill="#272727"/><clipPath id="D"><use xlink:href="#C"/></clipPath><g clip-path="url(#D)"><use xlink:href="#a"/><use xlink:href="#B"/><defs><use xlink:href="#b" id="E"/></defs><use xlink:href="#E" fill="#101010"/><clipPath id="F"><use xlink:href="#E"/></clipPath><g clip-path="url(#F)"><use xlink:href="#a"/><path fill="#101010" d="M0 0h83v31H0V0z"/><path fill="#101010" d="M.366 0h36.443v31H.366V0z"/></g></g></g></g><path fill="#CCC" d="M0 0h83v1H0V0z"/><path fill="none" stroke="#900" stroke-miterlimit="3.864" stroke-width="4.812" d="m68.273 18.845 6.018 5.503 11.71-11.711" clip-rule="evenodd"/><path fill-rule="evenodd" d="M45.772 18.318a4.8 4.8 0 0 1-2.251.542c-1.214 0-2.176-.338-2.886-1.016-.71-.68-1.064-1.601-1.064-2.764 0-1.165.354-2.086 1.064-2.764.709-.68 1.671-1.02 2.886-1.021a4.849 4.849 0 0 1 2.251.542v1.509a4.116 4.116 0 0 0-1.03-.522 3.44 3.44 0 0 0-1.069-.166c-.671 0-1.198.215-1.582.645-.384.43-.576 1.022-.576 1.777 0 .752.192 1.343.576 1.772.384.43.911.645 1.582.645.374 0 .73-.055 1.069-.166a4.1 4.1 0 0 0 1.03-.522v1.509zm6.73-6.66v1.543a6.687 6.687 0 0 0-1.171-.405 4.711 4.711 0 0 0-1.079-.137c-.45 0-.781.062-.996.186a.619.619 0 0 0-.322.576c0 .195.071.349.214.459.146.107.411.2.792.278l.8.161c.811.163 1.387.41 1.729.742.342.332.513.804.513 1.416 0 .804-.239 1.403-.717 1.797-.476.391-1.203.586-2.183.586-.462 0-.926-.044-1.392-.132a8.545 8.545 0 0 1-1.396-.391V16.75c.465.248.915.435 1.347.562.437.124.856.186 1.26.186.41 0 .724-.068.942-.205a.653.653 0 0 0 .327-.586c0-.228-.075-.403-.225-.527-.146-.124-.441-.234-.884-.332l-.727-.161c-.729-.156-1.263-.405-1.602-.747-.335-.342-.502-.802-.502-1.382 0-.726.234-1.284.703-1.675s1.143-.586 2.022-.586c.4 0 .812.031 1.235.093.422.058.86.148 1.312.268zm7.303 0v1.543a6.668 6.668 0 0 0-1.172-.405 4.711 4.711 0 0 0-1.079-.137c-.449 0-.781.062-.996.186a.619.619 0 0 0-.322.576c0 .195.072.349.215.459.146.107.41.2.791.278l.801.161c.811.163 1.387.41 1.729.742s.513.804.513 1.416c0 .804-.239 1.403-.718 1.797-.475.391-1.203.586-2.183.586-.462 0-.926-.044-1.392-.132s-.931-.218-1.396-.391V16.75c.465.248.915.435 1.348.562a4.6 4.6 0 0 0 1.26.186c.41 0 .724-.068.942-.205s.327-.332.327-.586c0-.228-.075-.403-.225-.527-.146-.124-.441-.234-.884-.332l-.728-.161c-.729-.156-1.263-.405-1.602-.747-.335-.342-.503-.802-.503-1.382 0-.726.234-1.284.703-1.675s1.143-.586 2.021-.586c.4 0 .812.031 1.235.093.425.058.862.148 1.315.268z" clip-rule="evenodd"/><path d="m33.077 7.038.334 2.034-1.185 2.266s-.455-.961-1.21-1.494c-.636-.448-1.051-.545-1.699-.412-.833.171-1.777 1.167-2.189 2.395-.493 1.469-.498 2.179-.515 2.832-.028 1.047.137 1.665.137 1.665s-.719-1.33-.712-3.278c.005-1.391.223-2.652.867-3.896.566-1.095 1.407-1.751 2.154-1.829.772-.08 1.383.292 1.854.695.495.423.996 1.348.996 1.348l1.168-2.326zm.145 11.509s-.523.936-.85 1.296-.91.996-1.63 1.313c-.721.317-1.099.377-1.811.309s-1.373-.48-1.605-.652c-.231-.171-.824-.678-1.159-1.15s-.858-1.416-.858-1.416.292.946.474 1.347c.105.231.428.938.886 1.554.427.574 1.257 1.562 2.519 1.785s2.128-.343 2.343-.48c.214-.137.667-.516.953-.822.299-.32.582-.728.738-.972.114-.179.301-.541.301-.541l-.301-1.571z"/><g fill="#005A9C"><path d="m11.437 7.127 2.852 9.698 2.852-9.698h2.065L14.485 23.06h-.197l-2.95-9.875-2.951 9.875h-.196L3.47 7.127h2.065l2.853 9.698 1.928-6.531-.944-3.167h2.065z"/><path d="M25.072 17.946c0 1.443-.384 2.656-1.151 3.639-.767.983-1.761 1.475-2.98 1.475-.918 0-1.718-.292-2.4-.875-.682-.583-1.187-1.374-1.515-2.371l1.613-.668c.236.603.548 1.079.935 1.426.387.348.843.521 1.367.521.551 0 1.016-.308 1.397-.924s.571-1.357.571-2.223c0-.958-.203-1.698-.61-2.223-.473-.616-1.214-.925-2.223-.925h-.787v-.944l2.754-4.761h-3.325l-.925 1.574h-.59v-3.54h7.672v.964l-2.911 5.016c1.023.328 1.797.925 2.321 1.791.524.865.787 1.881.787 3.048z"/></g></g></svg>