<?xml version="1.0" encoding="utf-8"?><!DOCTYPE svg PUBLIC "-//W3C//DTD SVG 1.1//EN" "http://www.w3.org/Graphics/SVG/1.1/DTD/svg11.dtd"><svg xmlns="http://www.w3.org/2000/svg" xmlns:xlink="http://www.w3.org/1999/xlink" xml:space="preserve" overflow="visible" width="88" height="31" viewBox="0 0 88 31"><defs><path id="a" fill="none" d="M0 0h88v31H0z" clip-rule="evenodd"/><path id="b" d="M0 30h83v1H0z"/><path id="d" fill="#4E4B3F" fill-rule="evenodd" d="M0 0h83v31H0z"/><path id="e" d="M82 0h1v31h-1z"/><path id="i" d="M80.806 1h1v30h-1z"/><path id="k" fill="#B39F67" fill-rule="evenodd" d="M0 0h83v31H0z" clip-rule="evenodd"/><path id="n" fill="#383530" fill-rule="evenodd" d="M0 0h83v31H0z"/><path id="o" fill="#383838" fill-rule="evenodd" d="M.366 0h36.443v31H.366z"/></defs><g image-rendering="optimizeQuality" shape-rendering="geometricPrecision" text-rendering="geometricPrecision"><use xlink:href="#a" clip-rule="evenodd"/><path fill="#FC6" fill-rule="evenodd" d="M0 0h83v31H0z" clip-rule="evenodd"/><path fill="#FFF" fill-rule="evenodd" d="M.365 0h36.443v31H.365z" clip-rule="evenodd"/><use xlink:href="#b" fill="#504D4C" fill-rule="evenodd" clip-rule="evenodd"/><clipPath id="c"><use xlink:href="#b"/></clipPath><g clip-path="url(#c)" clip-rule="evenodd"><use xlink:href="#a"/><use xlink:href="#d" fill-rule="evenodd"/><path fill="#4F4F4F" fill-rule="evenodd" d="M.365 0h36.443v31H.365z"/></g><use xlink:href="#e" fill="#504D4C" fill-rule="evenodd" clip-rule="evenodd"/><clipPath id="f"><use xlink:href="#e"/></clipPath><g clip-path="url(#f)"><use xlink:href="#a" clip-rule="evenodd"/><use xlink:href="#d" fill-rule="evenodd" clip-rule="evenodd"/><defs><use xlink:href="#b" id="g"/></defs><use xlink:href="#g" fill="#191919" fill-rule="evenodd" clip-rule="evenodd"/><clipPath id="h"><use xlink:href="#g"/></clipPath><g clip-path="url(#h)" clip-rule="evenodd"><use xlink:href="#a"/><path fill="#191917" fill-rule="evenodd" d="M0 0h83v31H0z"/><path fill="#191919" fill-rule="evenodd" d="M.366 0h36.443v31H.366z"/></g></g><path fill="#CCC" fill-rule="evenodd" d="M0 0h1v31H0z" clip-rule="evenodd"/><use xlink:href="#i" fill="#9E9C9C" fill-rule="evenodd" clip-rule="evenodd"/><clipPath id="j"><use xlink:href="#i"/></clipPath><g clip-path="url(#j)"><use xlink:href="#a" clip-rule="evenodd"/><use xlink:href="#k" fill-rule="evenodd" clip-rule="evenodd"/><defs><use xlink:href="#b" id="l"/></defs><use xlink:href="#l" fill="#383838" fill-rule="evenodd" clip-rule="evenodd"/><clipPath id="m"><use xlink:href="#l"/></clipPath><g clip-path="url(#m)" clip-rule="evenodd"><use xlink:href="#a"/><use xlink:href="#n" fill-rule="evenodd"/><use xlink:href="#o" fill-rule="evenodd"/></g></g><path fill="none" d="M4.692 2.291h40.005v24.607H4.692V2.291z"/><defs><path id="p" d="M2.16 29.005h80v1h-80v-1z"/></defs><use xlink:href="#p" fill="#9E9C9C"/><clipPath id="q"><use xlink:href="#p"/></clipPath><g clip-path="url(#q)"><use xlink:href="#a" clip-rule="evenodd"/><use xlink:href="#k" fill-rule="evenodd" clip-rule="evenodd"/><path fill="#B5B5B5" fill-rule="evenodd" d="M.365 0h36.443v31H.365z" clip-rule="evenodd"/><defs><use xlink:href="#b" id="r"/></defs><use xlink:href="#r" fill="#383838" fill-rule="evenodd" clip-rule="evenodd"/><clipPath id="s"><use xlink:href="#r"/></clipPath><g clip-path="url(#s)" clip-rule="evenodd"><use xlink:href="#a"/><use xlink:href="#n" fill-rule="evenodd"/><use xlink:href="#o" fill-rule="evenodd"/></g><defs><use xlink:href="#e" id="t"/></defs><use xlink:href="#t" fill="#383838" fill-rule="evenodd" clip-rule="evenodd"/><clipPath id="u"><use xlink:href="#t"/></clipPath><g clip-path="url(#u)"><use xlink:href="#a" clip-rule="evenodd"/><use xlink:href="#n" fill-rule="evenodd" clip-rule="evenodd"/><defs><use xlink:href="#b" id="v"/></defs><use xlink:href="#v" fill="#131313" fill-rule="evenodd" clip-rule="evenodd"/><clipPath id="w"><use xlink:href="#v"/></clipPath><g clip-path="url(#w)" clip-rule="evenodd"><use xlink:href="#a"/><path fill="#131313" fill-rule="evenodd" d="M0 0h83v31H0z"/><path fill="#131313" fill-rule="evenodd" d="M.366 0h36.443v31H.366z"/></g></g><defs><use xlink:href="#i" id="x"/></defs><use xlink:href="#x" fill="#818181" fill-rule="evenodd" clip-rule="evenodd"/><clipPath id="y"><use xlink:href="#x"/></clipPath><g clip-path="url(#y)"><use xlink:href="#a" clip-rule="evenodd"/><path fill="#807659" fill-rule="evenodd" d="M0 0h83v31H0z" clip-rule="evenodd"/><defs><use xlink:href="#b" id="z"/></defs><use xlink:href="#z" fill="#272727" fill-rule="evenodd" clip-rule="evenodd"/><clipPath id="A"><use xlink:href="#z"/></clipPath><g clip-path="url(#A)" clip-rule="evenodd"><use xlink:href="#a"/><path fill="#272623" fill-rule="evenodd" d="M0 0h83v31H0z"/><path fill="#272727" fill-rule="evenodd" d="M.366 0h36.443v31H.366z"/></g></g></g><path fill="#CCC" d="M0 0h83v1H0V0z"/><path fill="none" stroke="#900" stroke-miterlimit="3.864" stroke-width="4.812" d="m68.273 18.845 6.018 5.503 11.71-11.711" clip-rule="evenodd"/><path d="m33.077 7.038.334 2.034-1.185 2.266s-.455-.961-1.21-1.494c-.636-.448-1.051-.545-1.699-.412-.833.171-1.777 1.167-2.189 2.395-.493 1.469-.498 2.179-.515 2.832-.028 1.047.137 1.665.137 1.665s-.719-1.33-.712-3.278c.005-1.391.223-2.652.867-3.896.566-1.095 1.407-1.751 2.154-1.828.772-.08 1.383.292 1.854.695.495.423.996 1.348.996 1.348l1.168-2.327zm.145 11.509s-.523.936-.85 1.296c-.326.361-.91.996-1.63 1.313-.721.317-1.099.377-1.811.309s-1.373-.48-1.605-.652c-.231-.172-.824-.678-1.159-1.15s-.858-1.416-.858-1.416.292.946.474 1.347c.105.231.428.938.886 1.554.427.574 1.257 1.562 2.519 1.785s2.128-.343 2.343-.48c.214-.137.667-.516.953-.822.299-.32.582-.728.738-.972.114-.179.301-.541.301-.541l-.301-1.571z"/><g fill="#005A9C"><path d="m11.437 7.127 2.852 9.698 2.852-9.698h2.065L14.485 23.06h-.197l-2.95-9.875-2.951 9.875h-.196L3.47 7.127h2.065l2.853 9.698 1.928-6.531-.944-3.167h2.065z"/><path d="M25.072 17.946c0 1.443-.384 2.656-1.151 3.639-.767.983-1.761 1.475-2.98 1.475-.918 0-1.718-.292-2.4-.875-.682-.583-1.187-1.374-1.515-2.371l1.613-.668c.236.603.548 1.079.935 1.426.387.348.843.521 1.367.521.551 0 1.016-.308 1.397-.924s.571-1.357.571-2.223c0-.958-.203-1.698-.61-2.223-.473-.616-1.214-.925-2.223-.925h-.787v-.944l2.754-4.761h-3.325l-.925 1.574h-.59v-3.54h7.672v.964l-2.911 5.016c1.023.328 1.797.925 2.321 1.791.524.865.787 1.881.787 3.048z"/></g><path fill-rule="evenodd" d="m44.053 9.392 2.53 3.72h-1.958l-1.705-2.49-1.689 2.49h-1.968l2.529-3.72-2.431-3.57h1.963l1.596 2.349 1.592-2.349h1.973zm3.748-3.57h1.88v2.779h2.773V5.822h1.88v7.29h-1.88v-3.091h-2.773v3.091h-1.88zm7.599 0h6.719v1.421h-2.417v5.869h-1.88V7.243H55.4zm7.791 0h2.392l1.661 3.902 1.67-3.902h2.387v7.29h-1.777V7.78l-1.68 3.931h-1.191l-1.68-3.931v5.332h-1.782zm10.051 0h1.88v5.869h3.301v1.421h-5.181zM40.028 22.997h1.66v-4.712l-1.704.351v-1.279l1.695-.352h1.787v5.992h1.66v1.298h-5.098zm6.407-.591h1.758v1.89h-1.758zm7.778-1.763c0-.912-.086-1.553-.259-1.924-.169-.375-.456-.562-.859-.562-.404 0-.692.187-.864.562-.173.371-.259 1.012-.259 1.924 0 .921.086 1.571.259 1.948.172.377.46.566.864.566.4 0 .687-.189.859-.566.173-.377.259-1.027.259-1.948zm1.88.015c0 1.208-.261 2.14-.781 2.798-.521.654-1.26.981-2.217.981-.96 0-1.701-.327-2.222-.981-.521-.658-.781-1.59-.781-2.798 0-1.211.26-2.144.781-2.798.521-.658 1.261-.986 2.222-.986.957 0 1.696.329 2.217.986.521.654.781 1.587.781 2.798z" clip-rule="evenodd"/></g></svg>